<svg version="1.2"
    xmlns="http://www.w3.org/2000/svg" viewBox="0 0 16 16" width="16" height="16">
    <path d="m5.8 2.5h8.4q0.4 0 0.6 0.2 0.2 0.2 0.2 0.6 0 0.3-0.2 0.5-0.2 0.2-0.6 0.2h-8.4q-0.4 0-0.6-0.2-0.2-0.2-0.2-0.6 0-0.3 0.2-0.5 0.2-0.2 0.6-0.2zm0 5h8.4q0.4 0 0.6 0.2 0.2 0.2 0.2 0.6 0 0.3-0.2 0.5-0.2 0.2-0.6 0.2h-8.4q-0.4 0-0.6-0.2-0.2-0.2-0.2-0.6 0-0.3 0.2-0.5 0.2-0.2 0.6-0.2zm0 5h8.4q0.4 0 0.6 0.2 0.2 0.2 0.2 0.6 0 0.3-0.2 0.5-0.2 0.2-0.6 0.2h-8.4q-0.4 0-0.6-0.2-0.2-0.2-0.2-0.6 0-0.3 0.2-0.5 0.2-0.2 0.6-0.2zm-3.8 1.5q-0.4 0-0.7-0.3-0.3-0.3-0.3-0.7 0-0.4 0.3-0.7 0.3-0.3 0.7-0.3 0.4 0 0.7 0.3 0.3 0.3 0.3 0.7 0 0.4-0.3 0.7-0.3 0.3-0.7 0.3zm1-6q0 0.4-0.3 0.7-0.3 0.3-0.7 0.3-0.4 0-0.7-0.3-0.3-0.3-0.3-0.7 0-0.4 0.3-0.7 0.3-0.3 0.7-0.3 0.4 0 0.7 0.3 0.3 0.3 0.3 0.7zm-1-4q-0.4 0-0.7-0.3-0.3-0.3-0.3-0.7 0-0.4 0.3-0.7 0.3-0.3 0.7-0.3 0.4 0 0.7 0.3 0.3 0.3 0.3 0.7 0 0.4-0.3 0.7-0.3 0.3-0.7 0.3z"/>
</svg>